HIERARCHY
ROOT Hip
{
	OFFSET 0 0 0
	CHANNELS 6 Xposition Yposition Zposition Zrotation Yrotation Xrotation
	JOINT ShoulderCenter
	{
		OFFSET 0 43.63 0
		CHANNELS 3 Zrotation Yrotation Xrotation
		JOINT Head
		{
			OFFSET 0 18.49 0
			CHANNELS 3 Zrotation Yrotation Xrotation
			End Site
			{
				OFFSET 0.0 8.91 0.0
			}
		}
		JOINT ShoulderLeft
		{
			OFFSET -14 0 0
			CHANNELS 3 Zrotation Yrotation Xrotation
			JOINT ElbowLeft
			{
				OFFSET -25 0 0
				CHANNELS 3 Zrotation Yrotation Xrotation
				JOINT WristLeft
				{
					OFFSET -23 0 0
					CHANNELS 3 Zrotation Yrotation Xrotation
					End Site
					{
						OFFSET -8.32 0.0 0.0
					}
				}
			}
		}
		JOINT ShoulderRight
		{
			OFFSET 14 0 0
			CHANNELS 3 Zrotation Yrotation Xrotation
			JOINT ElbowRight
			{
				OFFSET 25 0 0
				CHANNELS 3 Zrotation Yrotation Xrotation
				JOINT WristRight
				{
					OFFSET 23 0 0
					CHANNELS 3 Zrotation Yrotation Xrotation
					End Site
					{
						OFFSET 8.32 0.0 0.0
					}
				}
			}
		}
	}
	JOINT HipLeft
	{
		OFFSET -9.52 0 0
		CHANNELS 3 Zrotation Yrotation Xrotation
		JOINT KneeLeft
		{
			OFFSET 0 -37.32 0
			CHANNELS 3 Zrotation Yrotation Xrotation
			JOINT AnkleLeft
			{
				OFFSET 0 -34.6 0
				CHANNELS 3 Zrotation Yrotation Xrotation
				End Site
				{
					OFFSET 0.0 0.0 8.91
				}
			}
		}
	}
	JOINT HipRight
	{
		OFFSET 9.52 0 0
		CHANNELS 3 Zrotation Yrotation Xrotation
		JOINT KneeRight
		{
			OFFSET 0 -37.32 0
			CHANNELS 3 Zrotation Yrotation Xrotation
			JOINT AnkleRight
			{
				OFFSET 0 -34.6 0
				CHANNELS 3 Zrotation Yrotation Xrotation
				End Site
				{
					OFFSET 0.0 0.0 8.91
				}
			}
		}
	}
}
MOTION
Frames: 12
Frame Time: 0.033333
17.5547 -7.76586 -251.249 -1.33551 -1.03304 -5.50319 -1.19087 -4.78335 6.33812 9.29826e-008 7.38127e-008 -6.75018e-009 79.9867 -3.38126 10.4785 3.41616e-006 28.3504 -1.33969e-006 0 0 0 -76.5691 2.00412 22.1061 -2.74557e-006 -26.7223 5.18278e-007 0 0 0 0.532149 -0.051011 4.18798 -1.13021 -0.00216391 -2.60841 9.60631e-008 4.73894e-008 1.92405e-007 -0.196961 -0.0760147 2.24204 2.60968 0.0411122 -0.793948 0 0 0 
17.5451 -7.77106 -251.249 -1.33693 -1.02831 -5.46605 -1.19346 -4.79042 6.25028 9.26319e-008 7.36409e-008 -9.81506e-009 79.995 -3.43448 10.4836 9.43499e-006 28.3665 5.47619e-007 0 0 0 -76.5724 2.08002 22.0656 6.78528e-006 -26.7129 -5.25681e-006 0 0 0 0.525142 -0.0542137 4.17227 -1.13266 -0.000154164 -2.58829 9.54333e-008 4.76577e-008 1.94878e-007 -0.211349 -0.0803185 2.21396 2.67557 0.041904 -0.781503 0 0 0 
17.5321 -7.77106 -251.249 -1.33616 -1.0292 -5.36852 -1.18119 -4.82263 6.23369 0 0 0 79.9976 -3.38338 10.7572 8.23182e-006 28.3428 1.16292e-006 0 0 0 -76.5876 2.10644 21.9366 -4.87716e-006 -26.7833 2.22404e-008 0 0 0 0.53877 -0.0510596 4.10805 -1.20826 -0.00302071 -2.66088 0 0 0 -0.205949 -0.0803508 2.12954 2.6842 0.0420452 -0.780451 -4.03197e-008 4.82461e-008 1.85042e-007 
17.5321 -7.77381 -251.247 -1.33637 -1.03543 -5.32148 -1.17945 -4.81866 6.4006 0 0 0 80.0047 -3.22716 10.7678 -1.90928e-006 28.4732 -1.42748e-006 0 0 0 -76.5937 1.97734 21.7616 -7.96135e-006 -26.7682 -1.0588e-006 0 0 0 0.539173 -0.0493748 4.06314 -1.22721 -0.00403455 -2.66337 0 0 0 -0.205551 -0.0801209 2.09297 2.6846 0.0428556 -0.796103 0 0 0 
17.5321 -7.77137 -251.242 -1.33645 -1.04474 -5.27354 -1.18109 -4.75967 6.47895 9.47059e-008 7.41012e-008 -3.79151e-008 80.0248 -3.19979 10.708 -3.22694e-007 28.6847 -2.95372e-006 0 0 0 -76.5835 1.87931 21.7053 -8.3543e-007 -26.8 2.69575e-006 0 0 0 0.539468 -0.0484096 4.02162 -1.25081 -0.00471936 -2.67027 0 0 0 -0.205525 -0.0766339 2.05366 2.60691 0.0424155 -0.805993 -4.50185e-008 4.77273e-008 1.84594e-007 
17.5737 -7.77106 -251.191 -1.36454 -1.11224 -5.01114 -0.978682 -4.93119 6.22717 0 0 0 79.8637 -3.22292 11.2085 4.21014e-006 28.8217 -9.77055e-007 0 0 0 -76.8693 2.21517 20.6763 -3.02997e-006 -27.1222 1.55633e-006 0 0 0 0.578392 -0.0424466 3.67359 -1.35284 -0.00729497 -2.49032 8.32939e-008 4.37707e-008 1.98107e-007 -0.221957 -0.0771462 1.87397 2.64724 0.0469129 -0.885349 0 0 0 
17.6026 -7.76626 -251.115 -1.4142 -1.14857 -4.8867 -0.907431 -4.99412 6.25349 0 0 0 79.9777 -2.97142 11.498 2.97314e-006 28.6217 -1.21264e-006 -8e-007 7.45289e-008 2.04412e-007 -76.8245 1.98292 20.9603 7.52996e-007 -27.1176 -3.88588e-006 0 0 0 0.682185 -0.038223 3.48589 -1.54173 -0.012147 -2.24903 7.49803e-008 4.25471e-008 2.08667e-007 -0.183465 -0.0763782 1.80966 2.63791 0.0509476 -0.970136 0 0 0 
17.6173 -7.75765 -251.019 -1.46147 -1.43367 -4.97387 -0.919041 -4.69664 6.81877 0 0 0 80.1954 -2.48035 11.813 8.27527e-006 28.7974 -1.01122e-006 0 0 0 -76.6873 1.36756 21.3079 -4.59417e-006 -27.1019 -1.50149e-008 0 0 0 0.79043 -0.0446885 3.5454 -1.68421 -0.0118065 -2.08211 7.10988e-008 2.16677e-008 4.04734e-009 -0.117158 -0.0804702 2.012 2.62156 0.0557161 -1.03709 -4.85588e-008 2.51874e-008 1.84874e-007 
17.7221 -7.75765 -250.947 -1.41891 -1.4889 -4.99323 -1.06047 -4.49096 7.15438 0 0 0 80.3732 -2.20298 11.8529 1.02665e-005 29.0071 -4.7118e-007 0 0 0 -76.5612 0.964385 21.5649 8.75893e-006 -27.1582 -2.19103e-006 0 0 0 0.807182 -0.0424195 3.41175 -1.95139 -0.0145429 -1.63122 5.84303e-008 1.8668e-008 2.19345e-008 -0.270734 -0.0830477 2.04624 2.74566 0.053984 -0.993315 -4.81321e-008 2.1088e-008 1.88232e-007 
17.7766 -7.75765 -250.784 -1.53269 -1.89185 -5.12243 -0.745345 -3.91432 7.44627 1.08237e-007 7.58109e-008 -7.63378e-008 80.4147 -1.88691 11.5444 7.24199e-006 28.7851 -7.96758e-007 0 0 0 -76.6793 0.57983 22.1048 2.08911e-006 -26.962 1.71827e-007 0 0 0 1.19848 -0.0377469 3.46433 -2.60406 -0.0200613 -1.29876 0 0 0 -0.186377 -0.0842296 2.30216 2.76327 0.0525618 -0.970182 -4.75182e-008 1.03762e-007 1.96668e-007 
17.841 -7.78231 -250.66 -1.552 -2.02562 -5.24007 -0.778554 -3.54551 7.81094 0 0 0 80.5781 -1.6072 10.8726 -1.74147e-005 29.0367 -5.8871e-006 0 0 0 -76.6206 0.0848168 22.7281 1.52705e-006 -26.5751 -3.60694e-006 2.99753e-007 2.9352e-007 3.09755e-008 1.20147 -0.0457653 3.62342 -2.59322 -0.0178433 -1.21043 0 0 0 -0.218045 -0.0882524 2.476 2.83617 0.0512521 -0.925684 0 0 0 
17.948 -7.7869 -250.599 -1.48395 -1.90583 -5.30492 -0.86144 -3.54438 7.91652 2.01424e-008 -1.91282e-007 -8.34446e-008 80.6 -1.51817 10.5158 -1.0011e-007 29.2721 -6.44351e-007 0 0 0 -76.6744 -0.0772264 22.9118 1.27578e-005 -26.4029 -3.135e-006 0 0 0 1.0152 -0.0441006 3.74309 -2.50434 -0.019002 -1.21271 3.51133e-008 1.02241e-007 4.5817e-008 -0.423603 -0.087125 2.54428 2.95115 0.0491647 -0.901129 0 0 0 
